<mxfile host="Electron" agent="Mozilla/5.0 (Windows NT 10.0; Win64; x64) AppleWebKit/537.36 (KHTML, like Gecko) draw.io/22.1.2 Chrome/114.0.5735.289 Electron/25.9.4 Safari/537.36" modified="2025-07-16T15:51:53.482Z" etag="Y8rN0z9Z0Nbc2gKNn2op" version="22.1.2" type="device">
  <diagram name="Page-1" id="M6A814TzNZhb9Hvma9BZ">
    <mxGraphModel dx="3043" dy="2856" grid="1" gridSize="6" guides="1" tooltips="1" connect="1" arrows="1" fold="1" page="1" pageScale="1" pageWidth="1200" pageHeight="1920" math="0" shadow="0">
      <root>
        <mxCell id="0" />
        <mxCell id="1" parent="0" />
        <mxCell id="RyPP2ot8q_JItX_U_d-H-1" value="Cashier" style="swimlane;fontStyle=1;align=center;verticalAlign=top;childLayout=stackLayout;horizontal=1;startSize=26;horizontalStack=0;resizeParent=1;resizeParentMax=0;resizeLast=0;collapsible=1;marginBottom=0;whiteSpace=wrap;html=1;" parent="1" vertex="1">
          <mxGeometry x="-186" y="-1476" width="270" height="150" as="geometry" />
        </mxCell>
        <mxCell id="RyPP2ot8q_JItX_U_d-H-3" value="" style="line;strokeWidth=1;fillColor=none;align=left;verticalAlign=middle;spacingTop=-1;spacingLeft=3;spacingRight=3;rotatable=0;labelPosition=right;points=[];portConstraint=eastwest;strokeColor=inherit;" parent="RyPP2ot8q_JItX_U_d-H-1" vertex="1">
          <mxGeometry y="26" width="270" height="14" as="geometry" />
        </mxCell>
        <mxCell id="RyPP2ot8q_JItX_U_d-H-4" value="+ viewMyAccount(id: int): Cashier&lt;br&gt;+ createNewOrder( order : Order ): Order&lt;br&gt;+ cancelOrder( order : Order )&lt;br&gt;+ createNewReservation(res : Reservation)&lt;br&gt;+ cancelReservation(res : Reservation)&lt;span style=&quot;background-color: initial;&quot;&gt;&lt;br&gt;&lt;/span&gt;" style="text;strokeColor=none;fillColor=none;align=left;verticalAlign=top;spacingLeft=4;spacingRight=4;overflow=hidden;rotatable=0;points=[[0,0.5],[1,0.5]];portConstraint=eastwest;whiteSpace=wrap;html=1;" parent="RyPP2ot8q_JItX_U_d-H-1" vertex="1">
          <mxGeometry y="40" width="270" height="110" as="geometry" />
        </mxCell>
        <mxCell id="RyPP2ot8q_JItX_U_d-H-13" value="Dine In" style="swimlane;fontStyle=1;align=center;verticalAlign=top;childLayout=stackLayout;horizontal=1;startSize=26;horizontalStack=0;resizeParent=1;resizeParentMax=0;resizeLast=0;collapsible=1;marginBottom=0;whiteSpace=wrap;html=1;" parent="1" vertex="1">
          <mxGeometry x="222" y="-1230" width="160" height="102" as="geometry" />
        </mxCell>
        <mxCell id="RyPP2ot8q_JItX_U_d-H-14" value="+ Service_Tax: double" style="text;strokeColor=none;fillColor=none;align=left;verticalAlign=top;spacingLeft=4;spacingRight=4;overflow=hidden;rotatable=0;points=[[0,0.5],[1,0.5]];portConstraint=eastwest;whiteSpace=wrap;html=1;" parent="RyPP2ot8q_JItX_U_d-H-13" vertex="1">
          <mxGeometry y="26" width="160" height="26" as="geometry" />
        </mxCell>
        <mxCell id="RyPP2ot8q_JItX_U_d-H-15" value="" style="line;strokeWidth=1;fillColor=none;align=left;verticalAlign=middle;spacingTop=-1;spacingLeft=3;spacingRight=3;rotatable=0;labelPosition=right;points=[];portConstraint=eastwest;strokeColor=inherit;" parent="RyPP2ot8q_JItX_U_d-H-13" vertex="1">
          <mxGeometry y="52" width="160" height="8" as="geometry" />
        </mxCell>
        <mxCell id="RyPP2ot8q_JItX_U_d-H-16" value="+ GetService_Tax()&lt;div&gt;+ SetService_Tax()&lt;/div&gt;" style="text;strokeColor=none;fillColor=none;align=left;verticalAlign=top;spacingLeft=4;spacingRight=4;overflow=hidden;rotatable=0;points=[[0,0.5],[1,0.5]];portConstraint=eastwest;whiteSpace=wrap;html=1;" parent="RyPP2ot8q_JItX_U_d-H-13" vertex="1">
          <mxGeometry y="60" width="160" height="42" as="geometry" />
        </mxCell>
        <mxCell id="RyPP2ot8q_JItX_U_d-H-17" value="Reservation" style="swimlane;fontStyle=1;align=center;verticalAlign=top;childLayout=stackLayout;horizontal=1;startSize=26;horizontalStack=0;resizeParent=1;resizeParentMax=0;resizeLast=0;collapsible=1;marginBottom=0;whiteSpace=wrap;html=1;" parent="1" vertex="1">
          <mxGeometry x="450" y="-1494" width="318" height="282" as="geometry" />
        </mxCell>
        <mxCell id="RyPP2ot8q_JItX_U_d-H-18" value="- id: int&lt;div&gt;- customerName: string&lt;/div&gt;&lt;div&gt;- phone: string&lt;br&gt;&lt;/div&gt;&lt;div&gt;- Date: Date&lt;/div&gt;" style="text;strokeColor=none;fillColor=none;align=left;verticalAlign=top;spacingLeft=4;spacingRight=4;overflow=hidden;rotatable=0;points=[[0,0.5],[1,0.5]];portConstraint=eastwest;whiteSpace=wrap;html=1;" parent="RyPP2ot8q_JItX_U_d-H-17" vertex="1">
          <mxGeometry y="26" width="318" height="76" as="geometry" />
        </mxCell>
        <mxCell id="RyPP2ot8q_JItX_U_d-H-19" value="" style="line;strokeWidth=1;fillColor=none;align=left;verticalAlign=middle;spacingTop=-1;spacingLeft=3;spacingRight=3;rotatable=0;labelPosition=right;points=[];portConstraint=eastwest;strokeColor=inherit;" parent="RyPP2ot8q_JItX_U_d-H-17" vertex="1">
          <mxGeometry y="102" width="318" height="8" as="geometry" />
        </mxCell>
        <mxCell id="RyPP2ot8q_JItX_U_d-H-20" value="+ GetId()&lt;div&gt;+ GetCustomeName()&lt;/div&gt;&lt;div&gt;+ GetPhone()&lt;div&gt;+ GetDate()&lt;/div&gt;&lt;/div&gt;&lt;div&gt;+ SetId()&lt;div&gt;+ SetCustomeName()&lt;/div&gt;&lt;div&gt;+ SetPhone()&lt;div&gt;+ SetDate()&lt;/div&gt;&lt;/div&gt;&lt;div&gt;+CheckAvlblTable(date:Date):bool&lt;br&gt;&lt;/div&gt;&lt;/div&gt;&lt;div&gt;+CheckReservation(name:string,phone:string):bool&lt;br&gt;&lt;/div&gt;" style="text;strokeColor=none;fillColor=none;align=left;verticalAlign=top;spacingLeft=4;spacingRight=4;overflow=hidden;rotatable=0;points=[[0,0.5],[1,0.5]];portConstraint=eastwest;whiteSpace=wrap;html=1;" parent="RyPP2ot8q_JItX_U_d-H-17" vertex="1">
          <mxGeometry y="110" width="318" height="172" as="geometry" />
        </mxCell>
        <mxCell id="RyPP2ot8q_JItX_U_d-H-21" value="FoodItem" style="swimlane;fontStyle=1;align=center;verticalAlign=top;childLayout=stackLayout;horizontal=1;startSize=26;horizontalStack=0;resizeParent=1;resizeParentMax=0;resizeLast=0;collapsible=1;marginBottom=0;whiteSpace=wrap;html=1;" parent="1" vertex="1">
          <mxGeometry x="594" y="-1068" width="160" height="264" as="geometry" />
        </mxCell>
        <mxCell id="RyPP2ot8q_JItX_U_d-H-22" value="- id: int&lt;div&gt;- name: String&lt;/div&gt;&lt;div&gt;- Price: double&lt;/div&gt;&lt;div&gt;- category: String&lt;/div&gt;&lt;div&gt;&lt;br&gt;&lt;/div&gt;" style="text;strokeColor=none;fillColor=none;align=left;verticalAlign=top;spacingLeft=4;spacingRight=4;overflow=hidden;rotatable=0;points=[[0,0.5],[1,0.5]];portConstraint=eastwest;whiteSpace=wrap;html=1;" parent="RyPP2ot8q_JItX_U_d-H-21" vertex="1">
          <mxGeometry y="26" width="160" height="76" as="geometry" />
        </mxCell>
        <mxCell id="RyPP2ot8q_JItX_U_d-H-23" value="" style="line;strokeWidth=1;fillColor=none;align=left;verticalAlign=middle;spacingTop=-1;spacingLeft=3;spacingRight=3;rotatable=0;labelPosition=right;points=[];portConstraint=eastwest;strokeColor=inherit;" parent="RyPP2ot8q_JItX_U_d-H-21" vertex="1">
          <mxGeometry y="102" width="160" height="8" as="geometry" />
        </mxCell>
        <mxCell id="RyPP2ot8q_JItX_U_d-H-24" value="+ GetId()&lt;div&gt;+ Get/name()&lt;/div&gt;&lt;div&gt;+ GetPrice()&lt;/div&gt;&lt;div&gt;+ GetCategory()&lt;/div&gt;&lt;div&gt;+ SetId()&lt;div&gt;+ Set/name()&lt;/div&gt;&lt;div&gt;+ SetPrice()&lt;/div&gt;&lt;div&gt;+ SetCategory()&lt;/div&gt;&lt;/div&gt;&lt;div&gt;+&amp;nbsp; ApplyDiscount()&lt;/div&gt;&lt;div&gt;+ displayitem()&lt;/div&gt;" style="text;strokeColor=none;fillColor=none;align=left;verticalAlign=top;spacingLeft=4;spacingRight=4;overflow=hidden;rotatable=0;points=[[0,0.5],[1,0.5]];portConstraint=eastwest;whiteSpace=wrap;html=1;" parent="RyPP2ot8q_JItX_U_d-H-21" vertex="1">
          <mxGeometry y="110" width="160" height="154" as="geometry" />
        </mxCell>
        <mxCell id="RyPP2ot8q_JItX_U_d-H-25" value="Order" style="swimlane;fontStyle=1;align=center;verticalAlign=top;childLayout=stackLayout;horizontal=1;startSize=26;horizontalStack=0;resizeParent=1;resizeParentMax=0;resizeLast=0;collapsible=1;marginBottom=0;whiteSpace=wrap;html=1;" parent="1" vertex="1">
          <mxGeometry x="-174" y="-1014" width="216" height="372" as="geometry" />
        </mxCell>
        <mxCell id="RyPP2ot8q_JItX_U_d-H-26" value="+ id: int&lt;div&gt;- cashierId: int&lt;/div&gt;&lt;div&gt;- Items: List&amp;lt;FoodItem&amp;gt;&lt;/div&gt;&lt;div&gt;&lt;span style=&quot;background-color: initial;&quot;&gt;- orderTime: Date&lt;/span&gt;&lt;br&gt;&lt;/div&gt;&lt;div&gt;&lt;div&gt;- total: double&lt;/div&gt;&lt;/div&gt;" style="text;strokeColor=none;fillColor=none;align=left;verticalAlign=top;spacingLeft=4;spacingRight=4;overflow=hidden;rotatable=0;points=[[0,0.5],[1,0.5]];portConstraint=eastwest;whiteSpace=wrap;html=1;" parent="RyPP2ot8q_JItX_U_d-H-25" vertex="1">
          <mxGeometry y="26" width="216" height="100" as="geometry" />
        </mxCell>
        <mxCell id="RyPP2ot8q_JItX_U_d-H-27" value="" style="line;strokeWidth=1;fillColor=none;align=left;verticalAlign=middle;spacingTop=-1;spacingLeft=3;spacingRight=3;rotatable=0;labelPosition=right;points=[];portConstraint=eastwest;strokeColor=inherit;" parent="RyPP2ot8q_JItX_U_d-H-25" vertex="1">
          <mxGeometry y="126" width="216" height="8" as="geometry" />
        </mxCell>
        <mxCell id="RyPP2ot8q_JItX_U_d-H-28" value="+ GetId()&lt;div&gt;+ GetCashierId()&lt;/div&gt;&lt;div&gt;+ GetItems()&lt;/div&gt;&lt;div&gt;+ GetType()&lt;/div&gt;&lt;div&gt;+ GetStatus()&lt;/div&gt;&lt;div&gt;+ GetOrderTime()&lt;/div&gt;&lt;div&gt;+ SetId()&lt;div&gt;+ SetCashierId()&lt;/div&gt;&lt;div&gt;+ SetItems()&lt;/div&gt;&lt;div&gt;+ SetType()&lt;/div&gt;&lt;div&gt;+ SetStatus()&lt;/div&gt;&lt;div&gt;+ SetOrderTime()&lt;/div&gt;&lt;/div&gt;&lt;div&gt;+ AddItem(item: FoodItem): void&lt;/div&gt;&lt;div&gt;+ RemoveItem(item: FoodItem): void&lt;/div&gt;&lt;div&gt;+ CalculateTotal(): double&lt;/div&gt;" style="text;strokeColor=none;fillColor=none;align=left;verticalAlign=top;spacingLeft=4;spacingRight=4;overflow=hidden;rotatable=0;points=[[0,0.5],[1,0.5]];portConstraint=eastwest;whiteSpace=wrap;html=1;" parent="RyPP2ot8q_JItX_U_d-H-25" vertex="1">
          <mxGeometry y="134" width="216" height="238" as="geometry" />
        </mxCell>
        <mxCell id="RyPP2ot8q_JItX_U_d-H-29" value="Delivery&amp;nbsp;" style="swimlane;fontStyle=1;align=center;verticalAlign=top;childLayout=stackLayout;horizontal=1;startSize=26;horizontalStack=0;resizeParent=1;resizeParentMax=0;resizeLast=0;collapsible=1;marginBottom=0;whiteSpace=wrap;html=1;" parent="1" vertex="1">
          <mxGeometry x="252" y="-882" width="160" height="292" as="geometry" />
        </mxCell>
        <mxCell id="IyaRV1TQ_x8UIVqJWDd7-1" value="- customerName: String&lt;div&gt;- address: String&lt;/div&gt;&lt;div&gt;- phone: String&lt;/div&gt;&lt;div&gt;- delivererid: int&lt;/div&gt;&lt;div&gt;&lt;div&gt;- status: String&lt;/div&gt;&lt;/div&gt;&lt;div&gt;- deliveryFee: double&lt;/div&gt;&lt;div&gt;&lt;br&gt;&lt;/div&gt;" style="text;strokeColor=none;fillColor=none;align=left;verticalAlign=top;spacingLeft=4;spacingRight=4;overflow=hidden;rotatable=0;points=[[0,0.5],[1,0.5]];portConstraint=eastwest;whiteSpace=wrap;html=1;" vertex="1" parent="RyPP2ot8q_JItX_U_d-H-29">
          <mxGeometry y="26" width="160" height="94" as="geometry" />
        </mxCell>
        <mxCell id="RyPP2ot8q_JItX_U_d-H-31" value="" style="line;strokeWidth=1;fillColor=none;align=left;verticalAlign=middle;spacingTop=-1;spacingLeft=3;spacingRight=3;rotatable=0;labelPosition=right;points=[];portConstraint=eastwest;strokeColor=inherit;" parent="RyPP2ot8q_JItX_U_d-H-29" vertex="1">
          <mxGeometry y="120" width="160" height="6" as="geometry" />
        </mxCell>
        <mxCell id="RyPP2ot8q_JItX_U_d-H-32" value="&lt;div&gt;+ GetCustomerName()&lt;/div&gt;&lt;div&gt;+ GetAddress()&lt;/div&gt;&lt;div&gt;+ GetPhone()&lt;/div&gt;&lt;div&gt;+ GetDelivererId()&lt;/div&gt;&lt;div&gt;&lt;div&gt;+ SetCustomerName()&lt;/div&gt;&lt;div&gt;+ SetAddress()&lt;/div&gt;&lt;div&gt;+ SetPhone()&lt;/div&gt;&lt;div&gt;+ SetDelivererId()&lt;/div&gt;&lt;/div&gt;&lt;div&gt;+ IsValidPhone()&lt;/div&gt;&lt;div&gt;+ displayInfo()&lt;/div&gt;" style="text;strokeColor=none;fillColor=none;align=left;verticalAlign=top;spacingLeft=4;spacingRight=4;overflow=hidden;rotatable=0;points=[[0,0.5],[1,0.5]];portConstraint=eastwest;whiteSpace=wrap;html=1;" parent="RyPP2ot8q_JItX_U_d-H-29" vertex="1">
          <mxGeometry y="126" width="160" height="166" as="geometry" />
        </mxCell>
        <mxCell id="RyPP2ot8q_JItX_U_d-H-33" value="Delivery Man" style="swimlane;fontStyle=1;align=center;verticalAlign=top;childLayout=stackLayout;horizontal=1;startSize=26;horizontalStack=0;resizeParent=1;resizeParentMax=0;resizeLast=0;collapsible=1;marginBottom=0;whiteSpace=wrap;html=1;" parent="1" vertex="1">
          <mxGeometry x="-648" y="-768" width="160" height="106" as="geometry" />
        </mxCell>
        <mxCell id="RyPP2ot8q_JItX_U_d-H-34" value="&lt;div&gt;- noOfOrders: int&lt;/div&gt;" style="text;strokeColor=none;fillColor=none;align=left;verticalAlign=top;spacingLeft=4;spacingRight=4;overflow=hidden;rotatable=0;points=[[0,0.5],[1,0.5]];portConstraint=eastwest;whiteSpace=wrap;html=1;" parent="RyPP2ot8q_JItX_U_d-H-33" vertex="1">
          <mxGeometry y="26" width="160" height="34" as="geometry" />
        </mxCell>
        <mxCell id="RyPP2ot8q_JItX_U_d-H-35" value="" style="line;strokeWidth=1;fillColor=none;align=left;verticalAlign=middle;spacingTop=-1;spacingLeft=3;spacingRight=3;rotatable=0;labelPosition=right;points=[];portConstraint=eastwest;strokeColor=inherit;" parent="RyPP2ot8q_JItX_U_d-H-33" vertex="1">
          <mxGeometry y="60" width="160" height="12" as="geometry" />
        </mxCell>
        <mxCell id="IyaRV1TQ_x8UIVqJWDd7-32" value="&lt;div&gt;+ UpdateOrderStatus(id:int)&lt;/div&gt;" style="text;strokeColor=none;fillColor=none;align=left;verticalAlign=top;spacingLeft=4;spacingRight=4;overflow=hidden;rotatable=0;points=[[0,0.5],[1,0.5]];portConstraint=eastwest;whiteSpace=wrap;html=1;" vertex="1" parent="RyPP2ot8q_JItX_U_d-H-33">
          <mxGeometry y="72" width="160" height="34" as="geometry" />
        </mxCell>
        <mxCell id="RyPP2ot8q_JItX_U_d-H-37" value="Records" style="endArrow=open;html=1;endSize=12;startArrow=diamondThin;startSize=14;startFill=0;edgeStyle=orthogonalEdgeStyle;rounded=0;exitX=0.413;exitY=0.996;exitDx=0;exitDy=0;exitPerimeter=0;entryX=0.75;entryY=0;entryDx=0;entryDy=0;" parent="1" source="RyPP2ot8q_JItX_U_d-H-4" target="RyPP2ot8q_JItX_U_d-H-25" edge="1">
          <mxGeometry relative="1" as="geometry">
            <mxPoint x="318" y="-954" as="sourcePoint" />
            <mxPoint x="478" y="-954" as="targetPoint" />
          </mxGeometry>
        </mxCell>
        <mxCell id="RyPP2ot8q_JItX_U_d-H-38" value="1" style="edgeLabel;resizable=0;html=1;align=left;verticalAlign=top;" parent="RyPP2ot8q_JItX_U_d-H-37" connectable="0" vertex="1">
          <mxGeometry x="-1" relative="1" as="geometry">
            <mxPoint x="15" y="13" as="offset" />
          </mxGeometry>
        </mxCell>
        <mxCell id="RyPP2ot8q_JItX_U_d-H-39" value="M" style="edgeLabel;resizable=0;html=1;align=right;verticalAlign=top;" parent="RyPP2ot8q_JItX_U_d-H-37" connectable="0" vertex="1">
          <mxGeometry x="1" relative="1" as="geometry">
            <mxPoint x="30" y="-36" as="offset" />
          </mxGeometry>
        </mxCell>
        <mxCell id="RyPP2ot8q_JItX_U_d-H-40" value="Extends" style="endArrow=block;endSize=16;endFill=0;html=1;rounded=0;entryX=1.002;entryY=0.049;entryDx=0;entryDy=0;entryPerimeter=0;exitX=0;exitY=0.25;exitDx=0;exitDy=0;exitPerimeter=0;" parent="1" source="RyPP2ot8q_JItX_U_d-H-15" target="RyPP2ot8q_JItX_U_d-H-25" edge="1">
          <mxGeometry x="0.0012" width="160" relative="1" as="geometry">
            <mxPoint x="318" y="-954" as="sourcePoint" />
            <mxPoint x="478" y="-954" as="targetPoint" />
            <Array as="points">
              <mxPoint x="132" y="-1176" />
              <mxPoint x="132" y="-996" />
            </Array>
            <mxPoint as="offset" />
          </mxGeometry>
        </mxCell>
        <mxCell id="RyPP2ot8q_JItX_U_d-H-41" value="Extends" style="endArrow=block;endSize=16;endFill=0;html=1;rounded=0;entryX=1.011;entryY=0.318;entryDx=0;entryDy=0;entryPerimeter=0;exitX=-0.004;exitY=0.547;exitDx=0;exitDy=0;exitPerimeter=0;" parent="1" source="IyaRV1TQ_x8UIVqJWDd7-1" target="RyPP2ot8q_JItX_U_d-H-28" edge="1">
          <mxGeometry x="-0.0206" width="160" relative="1" as="geometry">
            <mxPoint x="318" y="-954" as="sourcePoint" />
            <mxPoint x="478" y="-954" as="targetPoint" />
            <mxPoint as="offset" />
          </mxGeometry>
        </mxCell>
        <mxCell id="RyPP2ot8q_JItX_U_d-H-42" value="M" style="endArrow=open;html=1;endSize=12;startArrow=diamondThin;startSize=14;startFill=1;edgeStyle=orthogonalEdgeStyle;align=left;verticalAlign=bottom;rounded=0;exitX=1;exitY=0.5;exitDx=0;exitDy=0;entryX=-0.012;entryY=0.727;entryDx=0;entryDy=0;entryPerimeter=0;" parent="1" source="RyPP2ot8q_JItX_U_d-H-26" target="RyPP2ot8q_JItX_U_d-H-24" edge="1">
          <mxGeometry x="-0.9635" relative="1" as="geometry">
            <mxPoint x="318" y="-1188" as="sourcePoint" />
            <mxPoint x="478" y="-1188" as="targetPoint" />
            <Array as="points">
              <mxPoint x="522" y="-938" />
              <mxPoint x="522" y="-846" />
            </Array>
            <mxPoint as="offset" />
          </mxGeometry>
        </mxCell>
        <mxCell id="RyPP2ot8q_JItX_U_d-H-43" value="delivery" style="endArrow=open;html=1;endSize=12;startArrow=diamondThin;startSize=14;startFill=0;edgeStyle=orthogonalEdgeStyle;rounded=0;exitX=1;exitY=0.5;exitDx=0;exitDy=0;entryX=0.75;entryY=1;entryDx=0;entryDy=0;" parent="1" target="RyPP2ot8q_JItX_U_d-H-33" edge="1">
          <mxGeometry x="0.3394" relative="1" as="geometry">
            <mxPoint x="412" y="-706" as="sourcePoint" />
            <mxPoint x="720" y="-972" as="targetPoint" />
            <Array as="points">
              <mxPoint x="450" y="-706" />
              <mxPoint x="450" y="-570" />
              <mxPoint x="-528" y="-570" />
            </Array>
            <mxPoint as="offset" />
          </mxGeometry>
        </mxCell>
        <mxCell id="RyPP2ot8q_JItX_U_d-H-44" value="M" style="edgeLabel;resizable=0;html=1;align=left;verticalAlign=top;" parent="RyPP2ot8q_JItX_U_d-H-43" connectable="0" vertex="1">
          <mxGeometry x="-1" relative="1" as="geometry">
            <mxPoint x="8" y="-140" as="offset" />
          </mxGeometry>
        </mxCell>
        <mxCell id="RyPP2ot8q_JItX_U_d-H-46" value="assigned" style="endArrow=open;html=1;endSize=12;startArrow=diamondThin;startSize=14;startFill=0;edgeStyle=orthogonalEdgeStyle;rounded=0;entryX=-0.019;entryY=0.75;entryDx=0;entryDy=0;entryPerimeter=0;" parent="1" target="RyPP2ot8q_JItX_U_d-H-18" edge="1">
          <mxGeometry relative="1" as="geometry">
            <mxPoint x="288" y="-1236" as="sourcePoint" />
            <mxPoint x="334" y="-1458" as="targetPoint" />
          </mxGeometry>
        </mxCell>
        <mxCell id="RyPP2ot8q_JItX_U_d-H-47" value="M" style="edgeLabel;resizable=0;html=1;align=left;verticalAlign=top;" parent="RyPP2ot8q_JItX_U_d-H-46" connectable="0" vertex="1">
          <mxGeometry x="-1" relative="1" as="geometry">
            <mxPoint x="6" y="-42" as="offset" />
          </mxGeometry>
        </mxCell>
        <mxCell id="RyPP2ot8q_JItX_U_d-H-48" value="1" style="edgeLabel;resizable=0;html=1;align=right;verticalAlign=top;" parent="RyPP2ot8q_JItX_U_d-H-46" connectable="0" vertex="1">
          <mxGeometry x="1" relative="1" as="geometry">
            <mxPoint x="-14" as="offset" />
          </mxGeometry>
        </mxCell>
        <mxCell id="IyaRV1TQ_x8UIVqJWDd7-6" value="Employee" style="swimlane;fontStyle=1;align=center;verticalAlign=top;childLayout=stackLayout;horizontal=1;startSize=26;horizontalStack=0;resizeParent=1;resizeParentMax=0;resizeLast=0;collapsible=1;marginBottom=0;whiteSpace=wrap;html=1;" vertex="1" parent="1">
          <mxGeometry x="-690" y="-1476" width="240" height="246" as="geometry" />
        </mxCell>
        <mxCell id="IyaRV1TQ_x8UIVqJWDd7-7" value="- id: int&lt;div&gt;&lt;div&gt;- name: string&lt;/div&gt;&lt;div&gt;- Phone: String&lt;/div&gt;&lt;/div&gt;&lt;div&gt;&lt;div&gt;- Salary: double&lt;/div&gt;&lt;/div&gt;&lt;div&gt;- role: string&lt;/div&gt;" style="text;strokeColor=none;fillColor=none;align=left;verticalAlign=top;spacingLeft=4;spacingRight=4;overflow=hidden;rotatable=0;points=[[0,0.5],[1,0.5]];portConstraint=eastwest;whiteSpace=wrap;html=1;" vertex="1" parent="IyaRV1TQ_x8UIVqJWDd7-6">
          <mxGeometry y="26" width="240" height="88" as="geometry" />
        </mxCell>
        <mxCell id="IyaRV1TQ_x8UIVqJWDd7-8" value="" style="line;strokeWidth=1;fillColor=none;align=left;verticalAlign=middle;spacingTop=-1;spacingLeft=3;spacingRight=3;rotatable=0;labelPosition=right;points=[];portConstraint=eastwest;strokeColor=inherit;" vertex="1" parent="IyaRV1TQ_x8UIVqJWDd7-6">
          <mxGeometry y="114" width="240" height="16" as="geometry" />
        </mxCell>
        <mxCell id="IyaRV1TQ_x8UIVqJWDd7-9" value="+ GetId()&lt;div&gt;+ Getusername()&lt;/div&gt;&lt;div&gt;+ GetPassword()&lt;/div&gt;&lt;div&gt;&lt;span style=&quot;background-color: initial;&quot;&gt;+ Setusername()&lt;/span&gt;&lt;br&gt;&lt;/div&gt;&lt;div&gt;&lt;span style=&quot;background-color: initial;&quot;&gt;+ SetPassword()&lt;/span&gt;&lt;br&gt;&lt;/div&gt;&lt;div&gt;+ displayInfo()&lt;br&gt;&lt;/div&gt;&lt;div&gt;&lt;span style=&quot;background-color: initial;&quot;&gt;+ DeleteAccount(id: int): bool&lt;/span&gt;&lt;/div&gt;" style="text;strokeColor=none;fillColor=none;align=left;verticalAlign=top;spacingLeft=4;spacingRight=4;overflow=hidden;rotatable=0;points=[[0,0.5],[1,0.5]];portConstraint=eastwest;whiteSpace=wrap;html=1;" vertex="1" parent="IyaRV1TQ_x8UIVqJWDd7-6">
          <mxGeometry y="130" width="240" height="116" as="geometry" />
        </mxCell>
        <mxCell id="IyaRV1TQ_x8UIVqJWDd7-13" value="" style="endArrow=classic;html=1;rounded=0;entryX=1;entryY=0.5;entryDx=0;entryDy=0;" edge="1" parent="1" target="IyaRV1TQ_x8UIVqJWDd7-7">
          <mxGeometry width="50" height="50" relative="1" as="geometry">
            <mxPoint x="-186" y="-1404" as="sourcePoint" />
            <mxPoint x="-244" y="-1398" as="targetPoint" />
          </mxGeometry>
        </mxCell>
        <mxCell id="IyaRV1TQ_x8UIVqJWDd7-14" value="Extends" style="edgeLabel;html=1;align=center;verticalAlign=middle;resizable=0;points=[];" vertex="1" connectable="0" parent="IyaRV1TQ_x8UIVqJWDd7-13">
          <mxGeometry x="-0.0465" y="-1" relative="1" as="geometry">
            <mxPoint as="offset" />
          </mxGeometry>
        </mxCell>
        <mxCell id="IyaRV1TQ_x8UIVqJWDd7-15" value="&amp;lt;&amp;lt;Interface&amp;gt;&amp;gt;System User" style="swimlane;fontStyle=1;align=center;verticalAlign=top;childLayout=stackLayout;horizontal=1;startSize=26;horizontalStack=0;resizeParent=1;resizeParentMax=0;resizeLast=0;collapsible=1;marginBottom=0;whiteSpace=wrap;html=1;" vertex="1" parent="1">
          <mxGeometry x="-474" y="-1182" width="240" height="114" as="geometry" />
        </mxCell>
        <mxCell id="IyaRV1TQ_x8UIVqJWDd7-16" value="&lt;span style=&quot;background-color: initial;&quot;&gt;- username: String&lt;/span&gt;&lt;br&gt;&lt;div style=&quot;&quot;&gt;- Password: String&lt;/div&gt;" style="text;strokeColor=none;fillColor=none;align=left;verticalAlign=top;spacingLeft=4;spacingRight=4;overflow=hidden;rotatable=0;points=[[0,0.5],[1,0.5]];portConstraint=eastwest;whiteSpace=wrap;html=1;" vertex="1" parent="IyaRV1TQ_x8UIVqJWDd7-15">
          <mxGeometry y="26" width="240" height="40" as="geometry" />
        </mxCell>
        <mxCell id="IyaRV1TQ_x8UIVqJWDd7-17" value="" style="line;strokeWidth=1;fillColor=none;align=left;verticalAlign=middle;spacingTop=-1;spacingLeft=3;spacingRight=3;rotatable=0;labelPosition=right;points=[];portConstraint=eastwest;strokeColor=inherit;" vertex="1" parent="IyaRV1TQ_x8UIVqJWDd7-15">
          <mxGeometry y="66" width="240" height="14" as="geometry" />
        </mxCell>
        <mxCell id="IyaRV1TQ_x8UIVqJWDd7-18" value="&lt;span style=&quot;background-color: initial;&quot;&gt;+ logIn()&lt;/span&gt;" style="text;strokeColor=none;fillColor=none;align=left;verticalAlign=top;spacingLeft=4;spacingRight=4;overflow=hidden;rotatable=0;points=[[0,0.5],[1,0.5]];portConstraint=eastwest;whiteSpace=wrap;html=1;" vertex="1" parent="IyaRV1TQ_x8UIVqJWDd7-15">
          <mxGeometry y="80" width="240" height="34" as="geometry" />
        </mxCell>
        <mxCell id="IyaRV1TQ_x8UIVqJWDd7-20" value="Manager" style="swimlane;fontStyle=1;align=center;verticalAlign=top;childLayout=stackLayout;horizontal=1;startSize=26;horizontalStack=0;resizeParent=1;resizeParentMax=0;resizeLast=0;collapsible=1;marginBottom=0;whiteSpace=wrap;html=1;" vertex="1" parent="1">
          <mxGeometry x="-468" y="-954" width="240" height="120" as="geometry" />
        </mxCell>
        <mxCell id="IyaRV1TQ_x8UIVqJWDd7-22" value="" style="line;strokeWidth=1;fillColor=none;align=left;verticalAlign=middle;spacingTop=-1;spacingLeft=3;spacingRight=3;rotatable=0;labelPosition=right;points=[];portConstraint=eastwest;strokeColor=inherit;" vertex="1" parent="IyaRV1TQ_x8UIVqJWDd7-20">
          <mxGeometry y="26" width="240" height="14" as="geometry" />
        </mxCell>
        <mxCell id="IyaRV1TQ_x8UIVqJWDd7-23" value="+ register(cashier: Cashier): bool&lt;br&gt;&lt;div&gt;+ updateAccount(cashier: Cashier): bool&lt;/div&gt;&lt;div&gt;+ register(emp: Employee): bool&lt;/div&gt;&lt;div&gt;&lt;div&gt;+ updateEmp(emp: Employee): bool&lt;/div&gt;&lt;/div&gt;&lt;div&gt;&lt;br&gt;&lt;/div&gt;" style="text;strokeColor=none;fillColor=none;align=left;verticalAlign=top;spacingLeft=4;spacingRight=4;overflow=hidden;rotatable=0;points=[[0,0.5],[1,0.5]];portConstraint=eastwest;whiteSpace=wrap;html=1;" vertex="1" parent="IyaRV1TQ_x8UIVqJWDd7-20">
          <mxGeometry y="40" width="240" height="80" as="geometry" />
        </mxCell>
        <mxCell id="IyaRV1TQ_x8UIVqJWDd7-24" value="" style="endArrow=classic;html=1;rounded=0;exitX=0.5;exitY=0;exitDx=0;exitDy=0;entryX=0.526;entryY=1.031;entryDx=0;entryDy=0;entryPerimeter=0;" edge="1" parent="1" source="IyaRV1TQ_x8UIVqJWDd7-20" target="IyaRV1TQ_x8UIVqJWDd7-18">
          <mxGeometry width="50" height="50" relative="1" as="geometry">
            <mxPoint x="-306" y="-976" as="sourcePoint" />
            <mxPoint x="-256" y="-1026" as="targetPoint" />
          </mxGeometry>
        </mxCell>
        <mxCell id="IyaRV1TQ_x8UIVqJWDd7-25" value="Implements" style="edgeLabel;html=1;align=center;verticalAlign=middle;resizable=0;points=[];" vertex="1" connectable="0" parent="IyaRV1TQ_x8UIVqJWDd7-24">
          <mxGeometry x="-0.025" y="1" relative="1" as="geometry">
            <mxPoint as="offset" />
          </mxGeometry>
        </mxCell>
        <mxCell id="IyaRV1TQ_x8UIVqJWDd7-26" value="" style="endArrow=classic;html=1;rounded=0;exitX=0.126;exitY=1.038;exitDx=0;exitDy=0;entryX=0.5;entryY=0;entryDx=0;entryDy=0;exitPerimeter=0;" edge="1" parent="1" source="RyPP2ot8q_JItX_U_d-H-4" target="IyaRV1TQ_x8UIVqJWDd7-15">
          <mxGeometry width="50" height="50" relative="1" as="geometry">
            <mxPoint x="-180" y="-1270" as="sourcePoint" />
            <mxPoint x="-130" y="-1320" as="targetPoint" />
            <Array as="points">
              <mxPoint x="-152" y="-1272" />
              <mxPoint x="-252" y="-1272" />
              <mxPoint x="-354" y="-1272" />
            </Array>
          </mxGeometry>
        </mxCell>
        <mxCell id="IyaRV1TQ_x8UIVqJWDd7-27" value="Implements" style="edgeLabel;html=1;align=center;verticalAlign=middle;resizable=0;points=[];" vertex="1" connectable="0" parent="IyaRV1TQ_x8UIVqJWDd7-26">
          <mxGeometry x="0.381" y="-2" relative="1" as="geometry">
            <mxPoint as="offset" />
          </mxGeometry>
        </mxCell>
        <mxCell id="IyaRV1TQ_x8UIVqJWDd7-28" value="" style="endArrow=classic;html=1;rounded=0;exitX=0.003;exitY=0.137;exitDx=0;exitDy=0;entryX=0.583;entryY=1.011;entryDx=0;entryDy=0;entryPerimeter=0;exitPerimeter=0;" edge="1" parent="1" source="IyaRV1TQ_x8UIVqJWDd7-20" target="IyaRV1TQ_x8UIVqJWDd7-9">
          <mxGeometry width="50" height="50" relative="1" as="geometry">
            <mxPoint x="-270" y="-1024" as="sourcePoint" />
            <mxPoint x="-220" y="-1074" as="targetPoint" />
            <Array as="points">
              <mxPoint x="-552" y="-936" />
            </Array>
          </mxGeometry>
        </mxCell>
        <mxCell id="IyaRV1TQ_x8UIVqJWDd7-29" value="Extends" style="edgeLabel;html=1;align=center;verticalAlign=middle;resizable=0;points=[];" vertex="1" connectable="0" parent="IyaRV1TQ_x8UIVqJWDd7-28">
          <mxGeometry x="0.1182" y="2" relative="1" as="geometry">
            <mxPoint as="offset" />
          </mxGeometry>
        </mxCell>
        <mxCell id="IyaRV1TQ_x8UIVqJWDd7-30" value="" style="endArrow=classic;html=1;rounded=0;exitX=0.337;exitY=0;exitDx=0;exitDy=0;exitPerimeter=0;entryX=0.42;entryY=1.018;entryDx=0;entryDy=0;entryPerimeter=0;" edge="1" parent="1" source="RyPP2ot8q_JItX_U_d-H-33" target="IyaRV1TQ_x8UIVqJWDd7-9">
          <mxGeometry width="50" height="50" relative="1" as="geometry">
            <mxPoint x="-594" y="-778" as="sourcePoint" />
            <mxPoint x="-594" y="-1248" as="targetPoint" />
          </mxGeometry>
        </mxCell>
        <mxCell id="IyaRV1TQ_x8UIVqJWDd7-31" value="Extends" style="edgeLabel;html=1;align=center;verticalAlign=middle;resizable=0;points=[];" vertex="1" connectable="0" parent="IyaRV1TQ_x8UIVqJWDd7-30">
          <mxGeometry x="-0.4351" y="-2" relative="1" as="geometry">
            <mxPoint as="offset" />
          </mxGeometry>
        </mxCell>
      </root>
    </mxGraphModel>
  </diagram>
</mxfile>
